<svg width="354" height="408" viewBox="0 0 354 408" fill="none" xmlns="http://www.w3.org/2000/svg">
<path fill-rule="evenodd" clip-rule="evenodd" d="M0.5 0L213.5 2C278 2 389.5 83 297 193.5C340 213.5 398 318 297 384C288 389.881 259 407.5 200 407.5L0 408V292.5C2 272 16.2 231.6 59 228C104.054 228 104.994 231.68 105.99 231.502C90.3238 234.506 67.1001 249.008 67.5 287V345H212.5C242.5 345 280 323 280 295C280 267 270 224 213 224C164.833 222.5 83.5 221.5 62 211C45.8505 203.113 2.8 187.3 0 118.5L0.5 0ZM241 155.048C258.05 146.096 263 124.323 263 111.048C263 98.9802 257.842 82.4707 244 74.0471C226.168 63.195 195.904 62.0479 164.5 62.0479C133.658 62.0479 102.026 60.7597 83.5 71.5466C68.5195 80.2691 68 98.7018 68 111.048C68 123.394 71.5196 146.325 86.5 155.048C105.026 165.835 133.658 162.048 164.5 162.048C193.465 162.048 222.583 164.718 241 155.048Z" fill="white"/>
</svg>
