<svg width="225" height="70" viewBox="0 0 225 70" fill="none" xmlns="http://www.w3.org/2000/svg">
<path fill-rule="evenodd" clip-rule="evenodd" d="M9.68918 54.0608V22.9792L17.1883 17.6661V33.7382L26.8775 26.964V0L0 18.5958V60.835L9.68918 54.0608ZM34.2439 15.9392V47.0208L26.7447 52.3339V36.2618L17.0555 43.036V70L43.933 51.4041V9.16497L34.2439 15.9392Z" fill="url(#paint0_linear_4407_18)"/>
<path d="M80.8713 23.7597V46H76.4105V36.5367H66.8835V46H62.4227V23.7597H66.8835V32.9043H76.4105V23.7597H80.8713ZM102.149 28.3479L91.2203 54.3481H86.4727L90.2963 45.5539L83.2227 28.3479H88.2252L92.7816 40.6789L97.4017 28.3479H102.149ZM109.015 30.897C109.588 30.0898 110.374 29.4206 111.373 28.8896C112.392 28.3373 113.55 28.0612 114.846 28.0612C116.354 28.0612 117.713 28.4329 118.924 29.1764C120.156 29.9198 121.123 30.9819 121.824 32.3627C122.546 33.7221 122.907 35.3047 122.907 37.1102C122.907 38.9158 122.546 40.5196 121.824 41.9215C121.123 43.3023 120.156 44.375 118.924 45.1397C117.713 45.9044 116.354 46.2868 114.846 46.2868C113.55 46.2868 112.403 46.0212 111.405 45.4902C110.427 44.9591 109.631 44.29 109.015 43.4828V54.4118H104.554V28.3479H109.015V30.897ZM118.351 37.1102C118.351 36.0481 118.128 35.1347 117.682 34.37C117.257 33.5841 116.683 32.9893 115.961 32.5857C115.26 32.1821 114.495 31.9803 113.667 31.9803C112.86 31.9803 112.095 32.1927 111.373 32.6176C110.672 33.0212 110.098 33.6159 109.652 34.4019C109.227 35.1878 109.015 36.1119 109.015 37.174C109.015 38.2361 109.227 39.1601 109.652 39.946C110.098 40.732 110.672 41.3374 111.373 41.7622C112.095 42.1658 112.86 42.3676 113.667 42.3676C114.495 42.3676 115.26 42.1552 115.961 41.7304C116.683 41.3055 117.257 40.7001 117.682 39.9142C118.128 39.1282 118.351 38.1936 118.351 37.1102ZM142.558 36.7916C142.558 37.4289 142.516 38.0024 142.431 38.5122H129.526C129.632 39.7867 130.078 40.7851 130.864 41.5073C131.65 42.2296 132.617 42.5907 133.764 42.5907C135.421 42.5907 136.6 41.8791 137.301 40.4558H142.112C141.602 42.1552 140.625 43.5572 139.181 44.6618C137.736 45.7451 135.962 46.2868 133.859 46.2868C132.16 46.2868 130.631 45.915 129.271 45.1716C127.933 44.4069 126.881 43.3341 126.117 41.9534C125.373 40.5727 125.002 38.9795 125.002 37.174C125.002 35.3472 125.373 33.7434 126.117 32.3627C126.86 30.9819 127.901 29.9198 129.239 29.1764C130.578 28.4329 132.118 28.0612 133.859 28.0612C135.538 28.0612 137.035 28.4223 138.352 29.1445C139.69 29.8667 140.721 30.897 141.443 32.2352C142.186 33.5522 142.558 35.071 142.558 36.7916ZM137.938 35.5171C137.917 34.37 137.502 33.4566 136.695 32.7769C135.888 32.0759 134.9 31.7254 133.732 31.7254C132.627 31.7254 131.693 32.0653 130.928 32.745C130.185 33.4035 129.728 34.3275 129.558 35.5171H137.938ZM150.275 31.0881C150.848 30.1535 151.592 29.4206 152.505 28.8896C153.44 28.3585 154.502 28.093 155.692 28.093V32.7769H154.513C153.111 32.7769 152.049 33.1061 151.326 33.7646C150.625 34.4231 150.275 35.5702 150.275 37.2058V46H145.814V28.3479H150.275V31.0881ZM183.167 28.3479L178.005 46H173.194L169.976 33.669L166.757 46H161.914L156.721 28.3479H161.245L164.368 41.7941L167.745 28.3479H172.461L175.775 41.7622L178.897 28.3479H183.167ZM201.99 36.7916C201.99 37.4289 201.947 38.0024 201.862 38.5122H188.958C189.064 39.7867 189.51 40.7851 190.296 41.5073C191.082 42.2296 192.049 42.5907 193.196 42.5907C194.853 42.5907 196.031 41.8791 196.732 40.4558H201.544C201.034 42.1552 200.057 43.5572 198.612 44.6618C197.168 45.7451 195.394 46.2868 193.291 46.2868C191.592 46.2868 190.063 45.915 188.703 45.1716C187.365 44.4069 186.313 43.3341 185.549 41.9534C184.805 40.5727 184.433 38.9795 184.433 37.174C184.433 35.3472 184.805 33.7434 185.549 32.3627C186.292 30.9819 187.333 29.9198 188.671 29.1764C190.009 28.4329 191.549 28.0612 193.291 28.0612C194.969 28.0612 196.467 28.4223 197.784 29.1445C199.122 29.8667 200.152 30.897 200.875 32.2352C201.618 33.5522 201.99 35.071 201.99 36.7916ZM197.37 35.5171C197.348 34.37 196.934 33.4566 196.127 32.7769C195.32 32.0759 194.332 31.7254 193.164 31.7254C192.059 31.7254 191.125 32.0653 190.36 32.745C189.616 33.4035 189.16 34.3275 188.99 35.5171H197.37ZM209.707 30.9288C210.28 30.0791 211.066 29.3888 212.065 28.8577C213.084 28.3267 214.242 28.0612 215.538 28.0612C217.046 28.0612 218.405 28.4329 219.616 29.1764C220.848 29.9198 221.815 30.9819 222.516 32.3627C223.238 33.7221 223.599 35.3047 223.599 37.1102C223.599 38.9158 223.238 40.5196 222.516 41.9215C221.815 43.3023 220.848 44.375 219.616 45.1397C218.405 45.9044 217.046 46.2868 215.538 46.2868C214.221 46.2868 213.063 46.0319 212.065 45.5221C211.087 44.991 210.301 44.3113 209.707 43.4828V46H205.246V22.4214H209.707V30.9288ZM219.043 37.1102C219.043 36.0481 218.819 35.1347 218.373 34.37C217.949 33.5841 217.375 32.9893 216.653 32.5857C215.952 32.1821 215.187 31.9803 214.359 31.9803C213.551 31.9803 212.787 32.1927 212.065 32.6176C211.364 33.0212 210.79 33.6159 210.344 34.4019C209.919 35.1878 209.707 36.1119 209.707 37.174C209.707 38.2361 209.919 39.1601 210.344 39.946C210.79 40.732 211.364 41.3374 212.065 41.7622C212.787 42.1658 213.551 42.3676 214.359 42.3676C215.187 42.3676 215.952 42.1552 216.653 41.7304C217.375 41.3055 217.949 40.7001 218.373 39.9142C218.819 39.1282 219.043 38.1936 219.043 37.1102Z" fill="#232323"/>
<defs>
<linearGradient id="paint0_linear_4407_18" x1="21.9665" y1="0" x2="21.9665" y2="70" gradientUnits="userSpaceOnUse">
<stop stop-color="#1EC9FF"/>
<stop offset="1" stop-color="#1E78FF"/>
</linearGradient>
</defs>
</svg>
