<svg width="300" height="300" viewBox="0 0 300 300" fill="none" xmlns="http://www.w3.org/2000/svg">
<path d="M237.799 208.623C225.454 225.303 208.161 237.635 188.4 243.85C181.687 245.961 174.806 247.328 167.877 247.955V230.82C173.088 230.249 178.259 229.169 183.315 227.579C199.651 222.442 213.947 212.248 224.153 198.459L237.799 208.623ZM143.877 70.0928C140.828 70.6761 137.804 71.4359 134.82 72.374C118.483 77.5104 104.187 87.7037 93.9801 101.492C83.7732 115.281 78.18 131.957 78.0016 149.131C77.8234 166.304 83.0686 183.094 92.987 197.093C102.905 211.092 116.987 221.581 133.214 227.058C136.715 228.239 140.278 229.174 143.877 229.862V247.166C138.441 246.311 133.06 244.996 127.794 243.219C108.165 236.594 91.1314 223.905 79.1335 206.971C67.1356 190.037 60.7898 169.727 61.0055 148.953C61.2212 128.179 67.9876 108.006 80.3346 91.3262C92.6816 74.6468 109.975 62.3167 129.737 56.1035C134.383 54.6428 139.109 53.5378 143.877 52.7881V70.0928ZM167.877 52C175.481 52.6882 183.022 54.268 190.342 56.7393C209.971 63.3656 227.004 76.0555 239.001 92.9902L225.146 102.867C215.229 88.8677 201.148 78.3772 184.922 72.8994C179.36 71.022 173.645 69.7665 167.877 69.1338V52Z" fill="url(#paint0_linear_5_34)"/>
<path d="M218.648 194.214C209.213 206.878 196.022 216.242 180.954 220.969C176.667 222.314 172.29 223.261 167.878 223.817V204.783C170.384 204.359 172.87 203.764 175.316 202.997C186.6 199.457 196.478 192.445 203.544 182.962L218.648 194.214ZM143.878 95.1826C142.983 95.4239 142.092 95.6853 141.208 95.9717C129.956 99.6135 120.142 106.715 113.163 116.262C106.183 125.809 102.396 137.316 102.339 149.142C102.284 160.967 105.962 172.509 112.85 182.122C119.739 191.735 129.485 198.928 140.702 202.677C141.753 203.028 142.812 203.346 143.878 203.634V222.964C140.794 222.351 137.738 221.546 134.732 220.541C119.754 215.536 106.738 205.929 97.5397 193.093C88.3413 180.256 83.4296 164.844 83.5045 149.052C83.5794 133.26 88.6368 117.894 97.9567 105.146C107.277 92.3967 120.383 82.9148 135.408 78.0518C138.196 77.1492 141.025 76.4149 143.878 75.8477V95.1826ZM167.878 75C172.524 75.5854 177.13 76.6033 181.631 78.0625C196.654 82.9324 209.756 92.4199 219.07 105.173L203.859 116.282C196.884 106.732 187.073 99.6263 175.823 95.9795C173.214 95.1337 170.558 94.486 167.878 94.0322V75Z" fill="url(#paint1_linear_5_34)"/>
<g filter="url(#filter0_f_5_34)">
<line x1="155.877" y1="190" x2="155.877" y2="263" stroke="#38FBF5" stroke-width="10" stroke-linecap="round"/>
</g>
<line x1="155.877" y1="190" x2="155.877" y2="263" stroke="#38FBF5" stroke-width="10" stroke-linecap="round"/>
<g filter="url(#filter1_f_5_34)">
<line x1="155.877" y1="36" x2="155.877" y2="109" stroke="#38FBF5" stroke-width="10" stroke-linecap="round"/>
</g>
<line x1="155.877" y1="36" x2="155.877" y2="109" stroke="#38FBF5" stroke-width="10" stroke-linecap="round"/>
<defs>
<filter id="filter0_f_5_34" x="148.277" y="182.4" width="15.2" height="88.2" filterUnits="userSpaceOnUse" color-interpolation-filters="sRGB">
<feFlood flood-opacity="0" result="BackgroundImageFix"/>
<feBlend mode="normal" in="SourceGraphic" in2="BackgroundImageFix" result="shape"/>
<feGaussianBlur stdDeviation="1.3" result="effect1_foregroundBlur_5_34"/>
</filter>
<filter id="filter1_f_5_34" x="148.277" y="28.4" width="15.2" height="88.2" filterUnits="userSpaceOnUse" color-interpolation-filters="sRGB">
<feFlood flood-opacity="0" result="BackgroundImageFix"/>
<feBlend mode="normal" in="SourceGraphic" in2="BackgroundImageFix" result="shape"/>
<feGaussianBlur stdDeviation="1.3" result="effect1_foregroundBlur_5_34"/>
</filter>
<linearGradient id="paint0_linear_5_34" x1="143.88" y1="54.3721" x2="143.88" y2="250.419" gradientUnits="userSpaceOnUse">
<stop stop-color="#E3E3E3"/>
<stop offset="1" stop-color="#A0A0A0"/>
</linearGradient>
<linearGradient id="paint1_linear_5_34" x1="146.066" y1="75.3695" x2="146.066" y2="223.952" gradientUnits="userSpaceOnUse">
<stop stop-color="#E3E3E3"/>
<stop offset="1" stop-color="#A0A0A0"/>
</linearGradient>
</defs>
</svg>
